<?xml version="1.0" encoding="utf-8"?>
<!-- Generator: Adobe Illustrator 27.2.0, SVG Export Plug-In . SVG Version: 6.00 Build 0)  -->
<svg version="1.1" id="Ebene_1" xmlns="http://www.w3.org/2000/svg" xmlns:xlink="http://www.w3.org/1999/xlink" x="0px" y="0px"
	 viewBox="0 0 1000 410" style="enable-background:new 0 0 1000 410;" xml:space="preserve">
<style type="text/css">
	.st0{fill:#FFFFFF;}
	.st1{fill:#1A1A1A;}
</style>
<path id="Swoosh" class="st0" d="M528.2442627,0h-1.097168c-21.1031189,47.1944313-61.0162964,71.2185059-133.3779602,80.2637024
	c-19.4450684,2.5329437-44.4922485,2.8222198-61.6407166,2.8222198c-5.1717224,0-10.2340698-0.0282288-15.0883179-0.0670395
	h-2.9985962v79.8015823h2.9950867l44.7709351,0.0035248c35.3059082,0,87.7391968-4.3955841,137.0327148-25.3399353
	C560.6362915,111.2268982,603.0788574,64.6110229,623.2435913,0H528.2442627z"/>
<path id="Sixt" class="st1" d="M1000,64.3495712v84.5217209h-95.2709351v252.7855377h-99.5255127V148.8712921h-74.5170898
	l-65.0908813,92.5156555l127.5218506,160.2663727H669.3632202l-69.3630371-94.0466919l-72.9190063,94.0466919
	l-213.0421143,0.0035095V193.0071869h97.5005188v200.825058l125.5004578-152.4452972l-51.6677246-63.9971771
	c7.6235046-2.5435181,16.0619202-5.8243408,23.2832642-8.8723602
	c23.7313232-10.0188293,44.5698853-25.2940674,63.2211914-40.5833969l28.1234131,40.1812363l75.8929443-103.7656784H1000z
	 M134.3661499,410c97.6028442-0.440979,161.247345-30.2647095,161.247345-110.5072327
	c0-143.5588684-199.9646301-82.3380432-199.9646301-138.7575836c0-19.381546,21.1101761-27.1849518,52.5779114-27.1849518
	c38.5479431,0,88.2718964,12.9645081,126.8304138,25.4528046v-81.449028
	c-32.0215454-9.1898346-77.6462097-19.6425972-127.1196747-19.6425972
	c-111.4317169,0-147.8100891,52.4190636-147.937088,109.1596375
	C-0.3205985,311.0991211,196.641922,249.7653809,196.641922,305.7157288c0,18.8382874-20.8843994,27.3013916-62.6779022,27.3331299
	c-41.137352,0-85.1145477-9.983551-130.2947083-24.8883667v81.4313965C28.4518681,399.6565857,67.6136551,410,134.3661499,410"/>
</svg>
