<?xml version="1.0" encoding="utf-8"?>
<!-- Generator: Adobe Illustrator 27.4.1, SVG Export Plug-In . SVG Version: 6.00 Build 0)  -->
<svg version="1.1" id="Ebene_1" xmlns="http://www.w3.org/2000/svg" xmlns:xlink="http://www.w3.org/1999/xlink" x="0px" y="0px"
	 viewBox="0 0 1000 410" style="enable-background:new 0 0 1000 410;" xml:space="preserve">
<style type="text/css">
	.st0{fill:#FF5000;}
	.st1{fill:#FFFFFF;}
</style>
<path id="Swoosh" class="st0" d="M528.2488403,0h-1.097168c-21.1031189,47.1944351-61.0162964,71.2185059-133.3779907,80.2637024
	c-19.4450378,2.5329437-44.492218,2.8222275-61.6407166,2.8222275c-5.1717224,0-10.2411194-0.0282364-15.0917969-0.0670471
	v79.8051071h44.7709351c35.3059082,0,87.7391968-4.3955841,137.0327148-25.3399353
	C560.6408081,111.2268982,603.0834351,64.6110229,623.2481689,0H528.2488403z"/>
<path id="Sixt" class="st1" d="M540.4760742,242.3958893l-52.045166-64.0465546
	c7.2072449-2.4624023,14.9859619-5.4857025,21.7239685-8.3325806c23.2339172-9.81073,44.1783142-24.1546021,62.5297546-39.1194
	l28.7866211,41.2960205l76.6831665-104.8451767l321.8456421-0.0035248v81.5266495h-95.2710571v252.7855072h-96.5267944V148.8713226
	H732.18573h-0.7796021l-0.447998,0.6349945l-65.7330322,92.9354401l126.2836914,159.2150726H671.6209717L601.52771,306.1179199
	l-73.6810303,95.5389099H317.0411682v-206.148468h94.4984131v203.0087585L540.4760742,242.3958893z M147.1331329,59.9998627
	c-127.8076172,0-147.0410156,67.6307755-147.1327515,107.9460754
	c-0.1940285,87.6578979,72.6544495,98.1565399,131.1907501,106.5949554
	c37.0874634,5.344574,66.3820801,9.5672913,66.3820801,32.4060364c0,19.6884766-20.4892883,28.8747559-64.4806061,28.9065247
	c-36.7734756,0-79.1208496-7.9762878-129.4021606-24.3804016v78.5527649C37.3277359,403.4630737,79.8056335,410,133.4947662,410
	c108.0027161-0.4868469,160.506546-36.2371826,160.506546-109.2901306c0-87.1710968-73.8080292-97.7684937-133.1134033-106.2845306
	c-37.8776703-5.4398041-67.7966919-9.736618-67.7966919-32.836441c0-23.7700806,29.5450821-28.758316,54.3312073-28.758316
	c39.5392609,0,89.9193573,13.4160767,125.9237671,24.9553986V79.3214188
	C227.6404114,66.3216171,186.3478546,59.9998627,147.1331329,59.9998627"/>
</svg>
