<?xml version="1.0" encoding="UTF-8"?>
<svg id="Ebene_1" xmlns="http://www.w3.org/2000/svg" version="1.1" viewBox="0 0 113.39 113.39">
  <!-- Generator: Adobe Illustrator 29.1.0, SVG Export Plug-In . SVG Version: 2.1.0 Build 142)  -->
  <defs>
    <style>
      .st0 {
        fill: #fff;
      }

      .st0, .st1 {
        fill-rule: evenodd;
      }

      .st1 {
        fill: #008e5e;
      }
    </style>
  </defs>
  <polygon class="st1" points="113.39 0 0 0 0 113.39 113.39 113.39 113.39 0 113.39 0"/>
  <path class="st0" d="M90.76,7.17H22.68v69.65c-3.89.71-6.26,1.4-9.07,4.45-.96,1.15-2.98,3.31-2.79,8.54h11.87v14.84l-6.93,6.92h44.8l6.49-6.4c1.91-1.31,3.02-1.78,5.53-1.77l7.13.04-8.14,8.13h12.02l7.18-7.17v-46.97h-12.91c-1.99-.05-2.69-.45-3.97-2l-6.08-7.34-5.82,13.49,19.32,39.58h-7.77c-2.4-.06-3.77-1.13-4.84-3.14-5.48-10.24-10.48-21.1-16.17-31.12l-1.95,16.13c-.21,1.93-2.58,4.82-5.85,4.74H12.89c.05-2.23,1.6-4.74,3.2-6.17,2.26-2.01,5.8-2.96,9.57-2.96h14.63c.34,0,.64-.41.68-.74l2.02-17.98c.16-1.45.63-2.87,1.25-4.18l6.36-13.53h-8.04c-.72,0-.85.31-1.03.61l-6.68,10.73c-2.68,4.31-9.58,1.17-6.45-4.16l6.04-10.27c1.85-3.15,3.15-4.25,7.76-4.26h21.52c4.04.3,5.66,1.37,7.43,3.63l8.81,11.19h10.8V7.17h0ZM65.35,32.95c-4.47-.39-7.78-4.31-7.4-8.75.39-4.44,4.33-7.73,8.8-7.34,4.47.39,7.79,4.31,7.4,8.75-.39,4.44-4.32,7.73-8.8,7.34h0Z"/>
</svg>