<?xml version="1.0" encoding="UTF-8"?>
<svg id="Ebene_1" xmlns="http://www.w3.org/2000/svg" version="1.1" viewBox="0 0 48 48">
  <!-- Generator: Adobe Illustrator 29.1.0, SVG Export Plug-In . SVG Version: 2.1.0 Build 142)  -->
  <defs>
    <style>
      .st0 {
        fill: #fc5000;
      }
    </style>
  </defs>
  <path class="st0" d="M32.25,5.65c3.4,0,6.27,1.26,8.6,3.78s3.5,5.54,3.5,9.08c0,.6-.04,1.2-.13,1.8s-.21,1.18-.38,1.75h-13l-3.1-4.8c-.2-.27-.45-.49-.75-.68s-.63-.28-1-.28c-.47,0-.88.14-1.23.43s-.59.63-.73,1.03l-2.65,7.75-1.65-2.5c-.2-.3-.45-.53-.75-.7-.3-.17-.63-.25-1-.25H4.15c-.17-.53-.28-1.1-.35-1.7s-.1-1.2-.1-1.8c0-3.53,1.16-6.57,3.48-9.1,2.32-2.53,5.16-3.8,8.53-3.8,1.53,0,3.02.31,4.45.93s2.72,1.48,3.85,2.58c1.1-1.1,2.36-1.96,3.78-2.58s2.91-.93,4.48-.93ZM24,42.3c-.67,0-1.29-.12-1.88-.35s-1.09-.58-1.53-1.05l-13.4-13.45c-.23-.2-.43-.4-.6-.6s-.32-.42-.45-.65h11l3.15,4.8c.17.3.39.53.68.7s.61.25.98.25c.47,0,.88-.13,1.23-.4s.61-.62.78-1.05l2.7-7.7,1.65,2.45c.2.3.44.53.73.7s.61.25.98.25h11.85c-.17.23-.33.45-.5.65s-.33.38-.5.55l-13.45,13.5c-.47.47-.99.82-1.58,1.05-.58.23-1.19.35-1.83.35Z"/>
</svg>
