<?xml version="1.0" encoding="UTF-8"?>
<svg id="Ebene_1" xmlns="http://www.w3.org/2000/svg" version="1.1" viewBox="0 0 113.39 113.39">
  <!-- Generator: Adobe Illustrator 29.1.0, SVG Export Plug-In . SVG Version: 2.1.0 Build 142)  -->
  <defs>
    <style>
      .st0 {
        fill: #fff;
      }

      .st0, .st1 {
        fill-rule: evenodd;
      }

      .st1 {
        fill: #008e5e;
      }
    </style>
  </defs>
  <polygon class="st1" points="0 0 113.39 0 113.39 113.39 0 113.39 0 0 0 0"/>
  <polygon class="st0" points="103.42 19.45 103.42 28.93 93.89 28.93 93.89 38.45 84.41 38.45 84.41 28.93 74.89 28.93 74.89 19.45 84.41 19.45 84.41 9.93 93.89 9.93 93.89 19.45 103.42 19.45 103.42 19.45"/>
  <path class="st0" d="M42.49,76.85c.41,1,1.77,1.34,2.65.57,1.34-1.17,2.84-2.11,4.46-2.89l12.75,23.88c-4.5,2.61-10.7,4.97-17.28,4.05C22.29,80.05,10.8,52.06,11.28,20.12c4.03-5.28,10.11-7.95,15.14-9.26l7.7,25.95c-1.7.57-3.43.97-5.2,1.07-1.17.07-1.9,1.27-1.49,2.27l15.06,36.7h0ZM28.28,10.42c2.29-.48,4.25-.67,5.51-.72.39-.02.73.23.84.6l6.67,22.49c.12.39-.06.8-.42.99-1.65.85-3.3,1.67-4.98,2.35l-7.63-25.72h0ZM51.34,73.74c1.67-.69,3.42-1.27,5.19-1.83.39-.12.81.05,1,.41l11.05,20.7c.18.34.11.76-.18,1.02-.94.85-2.46,2.09-4.43,3.36l-12.64-23.66h0Z"/>
</svg>