<?xml version="1.0" encoding="UTF-8"?>
<svg id="Ebene_1" xmlns="http://www.w3.org/2000/svg" version="1.1" viewBox="0 0 113.39 113.39">
  <!-- Generator: Adobe Illustrator 29.1.0, SVG Export Plug-In . SVG Version: 2.1.0 Build 142)  -->
  <defs>
    <style>
      .st0 {
        fill: #fff;
      }

      .st0, .st1 {
        fill-rule: evenodd;
      }

      .st1 {
        fill: #008e5e;
      }
    </style>
  </defs>
  <polygon class="st1" points="0 0 113.39 0 113.39 113.39 0 113.39 0 0 0 0"/>
  <polygon class="st0" points="14.62 10.23 27.91 23.52 27.91 10.19 34.03 16.32 34.03 34.31 16.05 34.31 9.92 28.18 23.24 28.18 9.96 14.9 14.62 10.23 14.62 10.23"/>
  <polygon class="st0" points="10.23 98.76 23.52 85.48 10.19 85.48 16.32 79.35 34.31 79.35 34.31 97.34 28.18 103.47 28.18 90.15 14.9 103.43 10.23 98.76 10.23 98.76"/>
  <polygon class="st0" points="98.76 103.15 85.48 89.87 85.48 103.19 79.35 97.06 79.35 79.08 97.34 79.08 103.47 85.2 90.15 85.2 103.43 98.49 98.76 103.15 98.76 103.15"/>
  <polygon class="st0" points="103.15 14.62 89.87 27.91 103.19 27.91 97.06 34.03 79.08 34.03 79.08 16.05 85.2 9.92 85.2 23.24 98.49 9.96 103.15 14.62 103.15 14.62"/>
  <path class="st0" d="M60.27,33.08c0-1.98-1.6-3.58-3.58-3.58s-3.58,1.6-3.58,3.58,1.6,3.58,3.58,3.58,3.58-1.6,3.58-3.58h0ZM49.81,39.45c0-1.98-1.6-3.58-3.58-3.58s-3.58,1.6-3.58,3.58,1.6,3.58,3.58,3.58,3.58-1.6,3.58-3.58h0ZM41.14,49.07h.98v33.09c0,2.37,3.6,2.37,3.6,0v-19.74c0-.51,1-.51,1,0v19.74c0,2.37,3.6,2.37,3.6,0v-33.09h.91v14.12c0,2.17,3.3,2.17,3.3,0v-14.79h-.03c-.11-2.42-2.11-4.36-4.56-4.36h-7.53c-2.45,0-4.45,1.94-4.56,4.36h0v14.79c0,2.17,3.3,2.17,3.3,0v-14.12h0ZM70.82,39.45c0-1.98-1.6-3.58-3.58-3.58s-3.58,1.6-3.58,3.58,1.6,3.58,3.58,3.58,3.58-1.6,3.58-3.58h0ZM62.16,49.07h.98v33.09c0,2.37,3.6,2.37,3.6,0v-19.74c0-.51,1-.51,1,0v19.74c0,2.37,3.6,2.37,3.6,0v-33.09h.91v14.12c0,2.17,3.3,2.17,3.3,0v-14.79h-.03c-.11-2.42-2.11-4.36-4.56-4.36h-7.53c-2.45,0-4.45,1.94-4.56,4.36h0v14.79c0,2.17,3.3,2.17,3.3,0v-14.12h0Z"/>
</svg>