<?xml version="1.0" encoding="UTF-8"?>
<svg id="Ebene_1" xmlns="http://www.w3.org/2000/svg" version="1.1" viewBox="0 0 113.39 113.39">
  <!-- Generator: Adobe Illustrator 29.1.0, SVG Export Plug-In . SVG Version: 2.1.0 Build 142)  -->
  <defs>
    <style>
      .st0 {
        fill: #fff;
      }

      .st0, .st1 {
        fill-rule: evenodd;
      }

      .st1 {
        fill: #a1262d;
      }
    </style>
  </defs>
  <polygon class="st1" points="0 0 113.39 0 113.39 113.39 0 113.39 0 0 0 0"/>
  <path class="st0" d="M71.23,29.24c6.49,2.77,5.17,13.24,9.16,19.64,3.99,6.4,9.26,13.39,21.37,10.83-7.79-4.27-12.06-10.05-14.03-16.02s-6.2-16.07-16.5-14.45h0ZM65.16,72.57c7.12.11,9.31,6.53,15.12,11.33,5.82,4.79,11.93,8.07,21.47,1.12-8.97-2.91-12.28-4.46-16.05-9.49-3.77-5.04-13.46-8.87-20.54-2.95h0ZM74.7,47.97c6.59,9.98,15.4,16.41,27.06,18.34v12.64c-7.04-1.83-12.28-3.57-19.46-10.18-7.17-6.6-8.12-15.45-7.6-20.8h0ZM89.68,23.04c3.65,11.23,7.68,17.06,12.08,18v12.64c-4.65-2.49-10.81-8.24-12.52-14.31-1.72-6.07-.9-12.21.45-16.33h-.01ZM74.7,85.1c4.03,6,17.84,9.15,27.06,5.93v12.36c-8.2.26-14.78-1.06-17.95-2.8-3.17-1.74-8.42-6.91-9.11-15.49h0Z"/>
  <path class="st0" d="M21.58,59.32h23.93v-14.65h-23.93v14.65h0ZM46.19,14.71l-3.75-1.01h-4.3v-3.8h-9.17v3.8h-5.68l-10.02,9.38c-1.21,1.14-1.12,5.6-1.57,12.42l3.45-.1.63-6.15,8.72-8.16h3.13v6.82h-.15c-5.31,0-9.64,4.33-9.64,9.64v63.93c0,1.12.91,2.03,2.03,2.03h27.36c1.12,0,2.03-.91,2.03-2.03v-63.93c0-5.31-4.33-9.64-9.64-9.64h-.15v-6.82h2.96l3.75-1.01v-5.37h0Z"/>
</svg>