<?xml version="1.0" encoding="UTF-8"?>
<svg id="Ebene_1" xmlns="http://www.w3.org/2000/svg" version="1.1" viewBox="0 0 113.39 113.39">
  <!-- Generator: Adobe Illustrator 29.1.0, SVG Export Plug-In . SVG Version: 2.1.0 Build 142)  -->
  <defs>
    <style>
      .st0 {
        fill: #fff;
      }

      .st0, .st1 {
        fill-rule: evenodd;
      }

      .st1 {
        fill: #a1262d;
      }
    </style>
  </defs>
  <polygon class="st1" points="0 0 113.39 0 113.39 113.39 0 113.39 0 0 0 0"/>
  <path class="st0" d="M73.4,29.19c6.49,2.77,5.17,13.25,9.16,19.65,3.99,6.4,9.27,13.4,21.39,10.84-7.8-4.27-12.07-10.06-14.04-16.03-1.97-5.98-6.21-16.08-16.51-14.46h0ZM67.33,72.55c7.12.11,9.31,6.54,15.13,11.34,5.82,4.8,11.93,8.08,21.49,1.12-8.98-2.91-12.29-4.46-16.06-9.5s-13.46-8.87-20.56-2.96h0ZM76.87,47.93c6.59,9.98,15.41,16.42,27.08,18.35v12.64c-7.05-1.83-12.29-3.58-19.47-10.18-7.18-6.61-8.12-15.46-7.61-20.81h0ZM91.86,22.98c3.65,11.24,7.69,17.07,12.08,18.01v12.64c-4.65-2.49-10.81-8.25-12.53-14.32s-.9-12.22.45-16.34h0ZM76.87,85.08c4.03,6,17.85,9.16,27.08,5.93v12.36c-8.21.26-14.79-1.06-17.96-2.8-3.17-1.74-8.43-6.92-9.12-15.5h0Z"/>
  <path class="st0" d="M33.52,22.41c0-4.08-3.31-7.39-7.39-7.39s-7.39,3.31-7.39,7.39,3.31,7.39,7.39,7.39,7.39-3.31,7.39-7.39h0Z"/>
  <polygon class="st0" points="13.76 9.56 39.22 9.56 39.22 35.02 31.52 35.02 31.52 31.29 35.49 31.29 35.49 13.29 17.5 13.29 17.5 31.29 20.73 31.29 20.73 35.02 13.76 35.02 13.76 9.56 13.76 9.56"/>
  <path class="st0" d="M26.16,30.91c2.27,0,4.13,1.86,4.13,4.13v17.26c0,1,1.33,1.43,1.66.47.6-1.7,2.25-2.92,4.15-2.92,2.43,0,4.41,1.98,4.41,4.41v2.16c.04.91.7.68.85.02.52-1.68,2.1-2.9,3.94-2.9,2.27,0,4.13,1.86,4.13,4.13v2.76c-.02.64.59.76.68.28.08-1.9,1.66-3.43,3.57-3.43s3.58,1.61,3.58,3.58c0,9.25,0,18.5,0,27.76,0,4.42-2.58,6.81-4.11,7.79v6.53H20.91c-.87-7.33-7.11-16.17-10.2-23.08v-22.2c.75-.74,1.38-1.21,2.64-1.43,4.11-.71,6.16,2.97,6.16,6.22v12.93h2.52v-40.35c0-2.27,1.86-4.13,4.13-4.13h0Z"/>
</svg>