<?xml version="1.0" encoding="UTF-8"?>
<svg id="Ebene_1" xmlns="http://www.w3.org/2000/svg" version="1.1" viewBox="0 0 113.39 113.39">
  <!-- Generator: Adobe Illustrator 29.1.0, SVG Export Plug-In . SVG Version: 2.1.0 Build 142)  -->
  <defs>
    <style>
      .st0 {
        fill: #fff;
      }

      .st0, .st1 {
        fill-rule: evenodd;
      }

      .st1 {
        fill: #a1262d;
      }
    </style>
  </defs>
  <polygon class="st1" points="0 0 113.39 0 113.39 113.39 0 113.39 0 0 0 0"/>
  <path class="st0" d="M42.49,76.85c.43,1.05,1.81,1.31,2.65.57,1.34-1.17,2.84-2.11,4.46-2.89l12.75,23.88c-4.5,2.61-10.7,4.97-17.28,4.05C22.29,80.05,10.8,52.06,11.28,20.12c4.03-5.28,10.11-7.95,15.14-9.26l7.7,25.95c-1.7.57-3.43.97-5.2,1.07-1.12.07-1.92,1.22-1.49,2.27l15.06,36.7h0ZM28.28,10.42c2.29-.48,4.25-.67,5.51-.72.39-.02.73.23.84.6l6.67,22.49c.12.39-.06.8-.42.99-1.65.85-3.3,1.67-4.98,2.35l-7.63-25.72h0ZM51.34,73.74c1.67-.69,3.42-1.27,5.19-1.83.39-.12.81.05,1,.41l11.05,20.7c.18.34.11.76-.18,1.02-.94.85-2.46,2.09-4.43,3.36l-12.64-23.66h0Z"/>
  <path class="st0" d="M73.44,29.27c6.49,2.76,5.16,13.24,9.15,19.63s9.26,13.39,21.36,10.83c-7.79-4.27-12.05-10.04-14.03-16.02-1.97-5.97-6.2-16.07-16.49-14.44h0ZM67.38,72.59c7.12.11,9.3,6.53,15.12,11.32s11.92,8.07,21.46,1.12c-8.97-2.9-12.28-4.46-16.05-9.49s-13.45-8.86-20.54-2.95h0ZM76.91,48c6.58,9.97,15.4,16.4,27.05,18.33v12.63c-7.04-1.83-12.28-3.57-19.45-10.17s-8.11-15.44-7.6-20.79h0ZM91.89,23.07c3.65,11.23,7.68,17.05,12.07,18v12.63c-4.65-2.49-10.8-8.24-12.52-14.31-1.72-6.07-.9-12.21.45-16.32h0ZM76.91,85.11c4.02,6,17.83,9.15,27.05,5.92v12.35c-8.2.26-14.77-1.06-17.94-2.79s-8.42-6.91-9.11-15.48h0Z"/>
</svg>