<?xml version="1.0" encoding="UTF-8"?>
<svg id="Ebene_1" xmlns="http://www.w3.org/2000/svg" version="1.1" viewBox="0 0 48 48">
  <!-- Generator: Adobe Illustrator 29.1.0, SVG Export Plug-In . SVG Version: 2.1.0 Build 142)  -->
  <defs>
    <style>
      .st0 {
        fill: #fc5000;
      }
    </style>
  </defs>
  <path class="st0" d="M24,23.65c-2.38,0-4.32-.75-5.81-2.24-1.49-1.49-2.24-3.43-2.24-5.81s.75-4.32,2.24-5.81c1.49-1.49,3.43-2.24,5.81-2.24s4.32.75,5.81,2.24c1.49,1.49,2.24,3.43,2.24,5.81s-.75,4.32-2.24,5.81c-1.49,1.49-3.43,2.24-5.81,2.24ZM7.25,41.5v-5.45c0-1.37.33-2.54,1-3.52.67-.98,1.54-1.72,2.6-2.23,2.3-1.07,4.52-1.86,6.67-2.38,2.15-.52,4.31-.78,6.48-.78s4.32.27,6.45.8,4.35,1.32,6.65,2.35c1.09.51,1.98,1.25,2.65,2.23.67.98,1,2.15,1,3.52v5.45H7.25Z"/>
</svg>
